  0
SECTION
  2
HEADER
  9
$ACADVER
  1
AC1009
  9
$INSUNITS
 70
     5
 9
$MEASUREMENT
 70
    1
  0
ENDSEC
  0
SECTION
  2
TABLES
  0
TABLE
  2
LAYER
 70
     8
  0
LAYER
  2
0
 62
     7
 70
0
  6
CONTINUOUS
  0
LAYER
  2
1
 62
     1
 70
0
  6
CONTINUOUS
  0
LAYER
  2
2
 62
     2
 70
0
  6
CONTINUOUS
  0
LAYER
  2
3
 62
     3
 70
0
  6
CONTINUOUS
  0
LAYER
  2
4
 62
     4
 70
0
  6
CONTINUOUS
  0
LAYER
  2
5
 62
     5
 70
0
  6
CONTINUOUS
  0
LAYER
  2
6
 62
     6
 70
0
  6
CONTINUOUS
  0
LAYER
  2
7
 62
     7
 70
0
  6
CONTINUOUS
  0
ENDTAB
  0
TABLE
  2
STYLE
 70
     1
  0
STYLE
 70
     0
  2
STANDARD
  3
TXT
 40
0.00
 41
1.00
 42
1.00
 50
0.00
 71
     0
  0
ENDTAB
  0
ENDSEC
  0
SECTION
  2
BLOCKS
  0
BLOCK
  8
0
  2
EPAD
 70
0
 10
0.0
 20
0.0
  0
POLYLINE
  8
0
 66
1
 70
1
 40
0.5
 41
0.5
  0
VERTEX
  8
0
 10
-0.25
 20
0.0
 42
1.0
  0
VERTEX
  8
0
 10
0.25
 20
0.0
 42
1.0
  0
SEQEND
  8
0
  0
ENDBLK
  8
0
  0
BLOCK
  8
0
  2
RPAD
 70
0
 10
0.0
 20
0.0
  0
TRACE
  8
0
 10
-0.5
 20
-0.5
 11
-0.5
 21
0.5
 12
0.5
 22
-0.5
 13
0.5
 23
0.5
  0
ENDBLK
  8
0
  0
ENDSEC
0
SECTION
2
ENTITIES
0
INSERT
8
1
2
EPAD
10
1.250000
20
1.500000
41
0.177800
42
0.177800
0
CIRCLE
8
0
10
1.250000
20
1.500000
40
0.063500
0
INSERT
8
1
2
EPAD
10
1.250000
20
1.246000
41
0.177800
42
0.177800
0
CIRCLE
8
0
10
1.250000
20
1.246000
40
0.063500
0
INSERT
8
1
2
EPAD
10
1.250000
20
0.992000
41
0.177800
42
0.177800
0
CIRCLE
8
0
10
1.250000
20
0.992000
40
0.063500
0
INSERT
8
1
2
EPAD
10
1.250000
20
0.738000
41
0.177800
42
0.177800
0
CIRCLE
8
0
10
1.250000
20
0.738000
40
0.063500
0
INSERT
8
1
2
EPAD
10
1.250000
20
0.484000
41
0.177800
42
0.177800
0
CIRCLE
8
0
10
1.250000
20
0.484000
40
0.063500
0
INSERT
8
1
2
EPAD
10
1.250000
20
0.230000
41
0.177800
42
0.177800
0
CIRCLE
8
0
10
1.250000
20
0.230000
40
0.063500
0
INSERT
8
1
2
EPAD
10
1.250000
20
-0.024000
41
0.177800
42
0.177800
0
CIRCLE
8
0
10
1.250000
20
-0.024000
40
0.063500
0
INSERT
8
1
2
EPAD
10
1.250000
20
-0.278000
41
0.177800
42
0.177800
0
CIRCLE
8
0
10
1.250000
20
-0.278000
40
0.063500
0
INSERT
8
1
2
EPAD
10
1.250000
20
-0.532000
41
0.177800
42
0.177800
0
CIRCLE
8
0
10
1.250000
20
-0.532000
40
0.063500
0
INSERT
8
1
2
EPAD
10
1.250000
20
-0.786000
41
0.177800
42
0.177800
0
CIRCLE
8
0
10
1.250000
20
-0.786000
40
0.063500
0
INSERT
8
1
2
EPAD
10
1.250000
20
-1.040000
41
0.177800
42
0.177800
0
CIRCLE
8
0
10
1.250000
20
-1.040000
40
0.063500
0
INSERT
8
1
2
EPAD
10
1.250000
20
-1.294000
41
0.177800
42
0.177800
0
CIRCLE
8
0
10
1.250000
20
-1.294000
40
0.063500
0
INSERT
8
1
2
EPAD
10
1.250000
20
-1.548000
41
0.177800
42
0.177800
0
CIRCLE
8
0
10
1.250000
20
-1.548000
40
0.063500
0
INSERT
8
1
2
EPAD
10
1.250000
20
-1.802000
41
0.177800
42
0.177800
0
CIRCLE
8
0
10
1.250000
20
-1.802000
40
0.063500
0
INSERT
8
1
2
EPAD
10
1.250000
20
-2.056000
41
0.177800
42
0.177800
0
CIRCLE
8
0
10
1.250000
20
-2.056000
40
0.063500
0
INSERT
8
1
2
EPAD
10
-1.299382
20
-2.051791
41
0.177800
42
0.177800
0
CIRCLE
8
0
10
-1.299382
20
-2.051791
40
0.063500
0
INSERT
8
1
2
EPAD
10
-1.299382
20
-1.797791
41
0.177800
42
0.177800
0
CIRCLE
8
0
10
-1.299382
20
-1.797791
40
0.063500
0
INSERT
8
1
2
EPAD
10
-1.299382
20
-1.543791
41
0.177800
42
0.177800
0
CIRCLE
8
0
10
-1.299382
20
-1.543791
40
0.063500
0
INSERT
8
1
2
EPAD
10
-1.299382
20
-1.289791
41
0.177800
42
0.177800
0
CIRCLE
8
0
10
-1.299382
20
-1.289791
40
0.063500
0
INSERT
8
1
2
EPAD
10
-1.299382
20
-1.035791
41
0.177800
42
0.177800
0
CIRCLE
8
0
10
-1.299382
20
-1.035791
40
0.063500
0
INSERT
8
1
2
EPAD
10
-1.299382
20
-0.781791
41
0.177800
42
0.177800
0
CIRCLE
8
0
10
-1.299382
20
-0.781791
40
0.063500
0
INSERT
8
1
2
EPAD
10
-1.299382
20
-0.527791
41
0.177800
42
0.177800
0
CIRCLE
8
0
10
-1.299382
20
-0.527791
40
0.063500
0
INSERT
8
1
2
EPAD
10
-1.299382
20
-0.273791
41
0.177800
42
0.177800
0
CIRCLE
8
0
10
-1.299382
20
-0.273791
40
0.063500
0
INSERT
8
1
2
EPAD
10
-1.299382
20
-0.019791
41
0.177800
42
0.177800
0
CIRCLE
8
0
10
-1.299382
20
-0.019791
40
0.063500
0
INSERT
8
1
2
EPAD
10
-1.299382
20
0.234209
41
0.177800
42
0.177800
0
CIRCLE
8
0
10
-1.299382
20
0.234209
40
0.063500
0
INSERT
8
1
2
EPAD
10
-1.299382
20
0.488209
41
0.177800
42
0.177800
0
CIRCLE
8
0
10
-1.299382
20
0.488209
40
0.063500
0
INSERT
8
1
2
EPAD
10
-1.299382
20
0.742209
41
0.177800
42
0.177800
0
CIRCLE
8
0
10
-1.299382
20
0.742209
40
0.063500
0
INSERT
8
1
2
EPAD
10
-1.299382
20
0.996209
41
0.177800
42
0.177800
0
CIRCLE
8
0
10
-1.299382
20
0.996209
40
0.063500
0
INSERT
8
1
2
EPAD
10
-1.299382
20
1.250209
41
0.177800
42
0.177800
0
CIRCLE
8
0
10
-1.299382
20
1.250209
40
0.063500
0
INSERT
8
1
2
EPAD
10
-1.299382
20
1.504209
41
0.177800
42
0.177800
0
CIRCLE
8
0
10
-1.299382
20
1.504209
40
0.063500
0
INSERT
8
1
2
EPAD
10
2.750000
20
-2.250000
41
0.304800
42
0.304800
0
CIRCLE
8
0
10
2.750000
20
-2.250000
40
0.076200
0
INSERT
8
1
2
EPAD
10
2.750000
20
-1.742000
41
0.304800
42
0.304800
0
CIRCLE
8
0
10
2.750000
20
-1.742000
40
0.076200
0
INSERT
8
1
2
RPAD
10
-0.500000
20
-3.500000
41
0.203200
42
0.203200
50
-180.000000
0
CIRCLE
8
0
10
-0.500000
20
-3.500000
40
0.063500
0
INSERT
8
1
2
RPAD
10
-0.246000
20
-3.500000
41
0.203200
42
0.203200
50
-180.000000
0
CIRCLE
8
0
10
-0.246000
20
-3.500000
40
0.063500
0
INSERT
8
1
2
RPAD
10
0.008000
20
-3.500000
41
0.203200
42
0.203200
50
-180.000000
0
CIRCLE
8
0
10
0.008000
20
-3.500000
40
0.063500
0
INSERT
8
1
2
RPAD
10
0.262000
20
-3.500000
41
0.203200
42
0.203200
50
-180.000000
0
CIRCLE
8
0
10
0.262000
20
-3.500000
40
0.063500
0
INSERT
8
1
2
RPAD
10
-2.250000
20
-1.242000
41
0.203200
42
0.203200
50
-90.000000
0
CIRCLE
8
0
10
-2.250000
20
-1.242000
40
0.063500
0
INSERT
8
1
2
RPAD
10
-2.250000
20
-1.496000
41
0.203200
42
0.203200
50
-90.000000
0
CIRCLE
8
0
10
-2.250000
20
-1.496000
40
0.063500
0
INSERT
8
1
2
RPAD
10
-2.250000
20
-1.750000
41
0.203200
42
0.203200
50
-90.000000
0
CIRCLE
8
0
10
-2.250000
20
-1.750000
40
0.063500
0
INSERT
8
1
2
RPAD
10
2.500000
20
-1.000000
41
0.203200
42
0.203200
50
-270.000000
0
CIRCLE
8
0
10
2.500000
20
-1.000000
40
0.063500
0
INSERT
8
1
2
RPAD
10
2.500000
20
-0.746000
41
0.203200
42
0.203200
50
-270.000000
0
CIRCLE
8
0
10
2.500000
20
-0.746000
40
0.063500
0
INSERT
8
1
2
RPAD
10
2.500000
20
-0.492000
41
0.203200
42
0.203200
50
-270.000000
0
CIRCLE
8
0
10
2.500000
20
-0.492000
40
0.063500
0
INSERT
8
1
2
RPAD
10
2.500000
20
-0.238000
41
0.203200
42
0.203200
50
-270.000000
0
CIRCLE
8
0
10
2.500000
20
-0.238000
40
0.063500
0
INSERT
8
1
2
RPAD
10
2.500000
20
0.016000
41
0.203200
42
0.203200
50
-270.000000
0
CIRCLE
8
0
10
2.500000
20
0.016000
40
0.063500
0
INSERT
8
1
2
RPAD
10
2.500000
20
0.270000
41
0.203200
42
0.203200
50
-270.000000
0
CIRCLE
8
0
10
2.500000
20
0.270000
40
0.063500
0
INSERT
8
1
2
RPAD
10
2.500000
20
0.524000
41
0.203200
42
0.203200
50
-270.000000
0
CIRCLE
8
0
10
2.500000
20
0.524000
40
0.063500
0
INSERT
8
1
2
RPAD
10
-2.250000
20
0.246000
41
0.203200
42
0.203200
50
-270.000000
0
CIRCLE
8
0
10
-2.250000
20
0.246000
40
0.063500
0
INSERT
8
1
2
RPAD
10
-2.250000
20
0.500000
41
0.203200
42
0.203200
50
-270.000000
0
CIRCLE
8
0
10
-2.250000
20
0.500000
40
0.063500
0
INSERT
8
1
2
RPAD
10
-2.250000
20
0.754000
41
0.203200
42
0.203200
50
-270.000000
0
CIRCLE
8
0
10
-2.250000
20
0.754000
40
0.063500
0
INSERT
8
1
2
RPAD
10
-2.250000
20
1.008000
41
0.203200
42
0.203200
50
-270.000000
0
CIRCLE
8
0
10
-2.250000
20
1.008000
40
0.063500
0
POLYLINE
8
2
66
1
40
0.010160
41
0.010160
0
VERTEX
8
2
10
-3.000000
20
-4.250000
0
VERTEX
8
2
10
3.500000
20
-4.250000
0
VERTEX
8
2
10
3.500000
20
2.500000
0
VERTEX
8
2
10
-3.000000
20
2.500000
0
VERTEX
8
2
10
-3.000000
20
-4.250000
0
SEQEND
8
2
0
ENDSEC
0
EOF

